<svg xmlns="http://www.w3.org/2000/svg" viewBox="0 0 1360 860" width="1360" height="860">
  <defs>
    <marker id="arrowA" markerWidth="10" markerHeight="7" refX="9" refY="3.5" orient="auto">
      <polygon points="0 0, 10 3.5, 0 7" fill="#7c3aed"/>
    </marker>
    <marker id="arrowB" markerWidth="10" markerHeight="7" refX="9" refY="3.5" orient="auto">
      <polygon points="0 0, 10 3.5, 0 7" fill="#10b981"/>
    </marker>
    <marker id="arrowC" markerWidth="10" markerHeight="7" refX="9" refY="3.5" orient="auto">
      <polygon points="0 0, 10 3.5, 0 7" fill="#2563eb"/>
    </marker>
    <marker id="arrowE" markerWidth="10" markerHeight="7" refX="9" refY="3.5" orient="auto">
      <polygon points="0 0, 10 3.5, 0 7" fill="#f97316"/>
    </marker>
    <marker id="arrowF" markerWidth="10" markerHeight="7" refX="9" refY="3.5" orient="auto">
      <polygon points="0 0, 10 3.5, 0 7" fill="#7c3aed"/>
    </marker>
    <marker id="arrowG" markerWidth="10" markerHeight="7" refX="9" refY="3.5" orient="auto">
      <polygon points="0 0, 10 3.5, 0 7" fill="#ef4444"/>
    </marker>
    <marker id="arrowH" markerWidth="10" markerHeight="7" refX="9" refY="3.5" orient="auto">
      <polygon points="0 0, 10 3.5, 0 7" fill="#6b7280"/>
    </marker>
    <filter id="shadowSoft" x="-20%" y="-20%" width="140%" height="160%">
      <feDropShadow dx="0" dy="3" stdDeviation="6" flood-color="#0f172a" flood-opacity="0.12"/>
    </filter>
    <filter id="shadowGlass" x="-20%" y="-20%" width="140%" height="160%">
      <feDropShadow dx="0" dy="10" stdDeviation="16" flood-color="#020617" flood-opacity="0.28"/>
    </filter>
    <style>
    text { font-family: 'Helvetica Neue', Helvetica, Arial, 'PingFang SC', 'Microsoft YaHei', sans-serif; }
    .title { font-size: 30px; font-weight: 700; fill: #111827; }
    .subtitle { font-size: 14px; font-weight: 500; fill: #6b7280; }
    .section { font-size: 13px; font-weight: 700; fill: #2563eb; letter-spacing: 1.4px; }
    .section-sub { font-size: 12px; font-weight: 500; fill: #94a3b8; }
    .node-title { font-size: 18px; font-weight: 700; fill: #111827; }
    .node-sub { font-size: 12px; font-weight: 500; fill: #6b7280; }
    .node-type { font-size: 12px; font-weight: 700; fill: #9ca3af; letter-spacing: 0.08em; }
    .arrow-label { font-size: 12px; font-weight: 600; fill: #6b7280; }
    .legend { font-size: 12px; font-weight: 500; fill: #6b7280; }
    .footnote { font-size: 12px; font-weight: 500; fill: #94a3b8; }
    </style>
  </defs>
  <rect width="1360.0" height="860.0" fill="#ffffff"/>
  <text x="48.0" y="48" text-anchor="start" class="title">aisdk 当前工程脉络与两条后续路线</text>
  <text x="48.0" y="72" text-anchor="start" class="subtitle">The core package is already session-centric. The main priority question is runtime convergence vs. semantic-family expansion.</text>
  <rect x="40.0" y="110.0" width="820.0" height="116.0" rx="16.0" fill="none" stroke="#dbe5f1" stroke-width="1.4" stroke-dasharray="6 5"/>
  <text x="58.0" y="134.0" class="section">01 // CURRENT SURFACES</text>
  <text x="26.0" y="168.0" text-anchor="start" dominant-baseline="middle" font-size="14.0" font-weight="600" fill="#6b7280">Interface</text>
  <rect x="40.0" y="252.0" width="820.0" height="214.0" rx="16.0" fill="none" stroke="#dbe5f1" stroke-width="1.4" stroke-dasharray="6 5"/>
  <text x="58.0" y="276.0" class="section">02 // SESSION-CENTRIC RUNTIME SPINE</text>
  <text x="26.0" y="359.0" text-anchor="start" dominant-baseline="middle" font-size="14.0" font-weight="600" fill="#6b7280">Runtime</text>
  <rect x="40.0" y="492.0" width="820.0" height="206.0" rx="16.0" fill="none" stroke="#dbe5f1" stroke-width="1.4" stroke-dasharray="6 5"/>
  <text x="58.0" y="516.0" class="section">03 // EXECUTION AND EXTENSION PRIMITIVES</text>
  <text x="26.0" y="595.0" text-anchor="start" dominant-baseline="middle" font-size="14.0" font-weight="600" fill="#6b7280">Capability</text>
  <rect x="40.0" y="724.0" width="820.0" height="96.0" rx="16.0" fill="none" stroke="#dbe5f1" stroke-width="1.4" stroke-dasharray="6 5"/>
  <text x="58.0" y="748.0" class="section">04 // FOUNDATIONS AND PACKAGE BOUNDARY</text>
  <text x="26.0" y="772.0" text-anchor="start" dominant-baseline="middle" font-size="14.0" font-weight="600" fill="#6b7280">Base</text>
  <rect x="900.0" y="210.0" width="420.0" height="292.0" rx="16.0" fill="#f8fafc" stroke="#93c5fd" stroke-width="1.4" stroke-dasharray="6 5"/>
  <text x="918.0" y="234.0" class="section">Route A // Runtime Productization</text>
  <text x="916.0" y="356.0" text-anchor="start" dominant-baseline="middle" font-size="14.0" font-weight="600" fill="#6b7280">Recommended next</text>
  <rect x="900.0" y="530.0" width="420.0" height="272.0" rx="16.0" fill="#faf5ff" stroke="#c4b5fd" stroke-width="1.4" stroke-dasharray="6 5"/>
  <text x="918.0" y="554.0" class="section">Route B // Semantic + Multimodal Expansion</text>
  <text x="916.0" y="666.0" text-anchor="start" dominant-baseline="middle" font-size="14.0" font-weight="600" fill="#6b7280">Second wave</text>
  <path d="M 140.0,206.0 L 140.0,226.4 L 184.0,226.4 L 184.0,548.0" fill="none" stroke="#2563eb" stroke-width="2.4" marker-end="url(#arrowC)"/>
  <path d="M 340.0,206.0 L 340.0,226.4 L 275.0,226.4 L 275.0,304.0" fill="none" stroke="#2563eb" stroke-width="2.4" marker-end="url(#arrowC)"/>
  <path d="M 555.0,206.0 L 555.0,282.0 L 275.0,282.0 L 275.0,304.0" fill="none" stroke="#2563eb" stroke-width="2.4" marker-end="url(#arrowC)"/>
  <path d="M 755.0,206.0 L 755.0,286.0 L 366.0,286.0 L 275.0,304.0" fill="none" stroke="#2563eb" stroke-width="2.4" marker-end="url(#arrowC)"/>
  <path d="M 420.0,344.0 L 476.0,344.0" fill="none" stroke="#7c3aed" stroke-width="2.4" marker-end="url(#arrowA)"/>
  <path d="M 275.0,384.0 L 275.0,404.4 L 240.0,404.4 L 240.0,416.0" fill="none" stroke="#10b981" stroke-width="2.4" marker-end="url(#arrowB)" stroke-dasharray="6,4"/>
  <path d="M 275.0,384.0 L 275.0,396.0 L 513.0,396.0 L 513.0,404.0" fill="none" stroke="#10b981" stroke-width="2.4" marker-end="url(#arrowB)" stroke-dasharray="6,4"/>
  <path d="M 631.0,384.0 L 690.0,396.0 L 725.0,396.0 L 725.0,416.0" fill="none" stroke="#ef4444" stroke-width="2.4" marker-end="url(#arrowG)" stroke-dasharray="6,4"/>
  <path d="M 631.0,384.0 L 631.0,476.0 L 184.0,476.0 L 184.0,548.0" fill="none" stroke="#7c3aed" stroke-width="2.4" marker-end="url(#arrowA)"/>
  <path d="M 292.0,584.0 L 336.0,584.0" fill="none" stroke="#2563eb" stroke-width="2.4" marker-end="url(#arrowC)"/>
  <path d="M 292.0,584.0 L 292.0,632.0 L 550.0,632.0 L 550.0,584.0 L 572.0,584.0" fill="none" stroke="#7c3aed" stroke-width="2.4" marker-end="url(#arrowA)"/>
  <path d="M 292.0,584.0 L 292.0,632.0 L 548.0,632.0 L 548.0,676.0 L 572.0,676.0" fill="none" stroke="#2563eb" stroke-width="2.4" marker-end="url(#arrowC)"/>
  <path d="M 130.0,344.0 L 90.0,344.0 L 90.0,676.0 L 76.0,676.0" fill="none" stroke="#f97316" stroke-width="2.4" marker-end="url(#arrowE)"/>
  <path d="M 184.0,646.0 L 184.0,620.0" fill="none" stroke="#f97316" stroke-width="2.4" marker-end="url(#arrowE)"/>
  <path d="M 432.0,646.0 L 432.0,632.0 L 200.0,632.0 L 200.0,620.0 L 184.0,620.0" fill="none" stroke="#f97316" stroke-width="2.4" marker-end="url(#arrowE)"/>
  <path d="M 420.0,344.0 L 420.0,290.0 L 880.0,290.0 L 880.0,298.0 L 940.0,298.0" fill="none" stroke="#7c3aed" stroke-width="2.4" marker-end="url(#arrowA)"/>
  <path d="M 528.0,584.0 L 528.0,632.0 L 880.0,632.0 L 880.0,386.0 L 940.0,386.0" fill="none" stroke="#7c3aed" stroke-width="2.4" marker-end="url(#arrowA)"/>
  <path d="M 802.0,446.0 L 900.0,446.0 L 940.0,474.0" fill="none" stroke="#7c3aed" stroke-width="2.4" marker-end="url(#arrowA)"/>
  <path d="M 292.0,676.0 L 292.0,626.0 L 880.0,626.0 L 880.0,610.0 L 940.0,610.0" fill="none" stroke="#7c3aed" stroke-width="2.4" marker-end="url(#arrowA)" stroke-dasharray="6,4"/>
  <path d="M 528.0,676.0 L 528.0,730.0 L 900.0,730.0 L 900.0,698.0 L 940.0,698.0" fill="none" stroke="#7c3aed" stroke-width="2.4" marker-end="url(#arrowA)" stroke-dasharray="6,4"/>
  <path d="M 818.0,776.0 L 818.0,786.0 L 940.0,786.0" fill="none" stroke="#7c3aed" stroke-width="2.4" marker-end="url(#arrowA)" stroke-dasharray="6,4"/>
  <rect x="70.0" y="150.0" width="140.0" height="56.0" rx="10.0" fill="#eff6ff" stroke="#93c5fd" stroke-width="1.8"/>
  <text x="140.0" y="168.0" text-anchor="middle" class="node-type">ENTRY</text>
  <text x="140.0" y="184.0" text-anchor="middle" class="node-title">R API</text>
  <text x="140.0" y="206.0" text-anchor="middle" class="node-sub">generate_text / agent</text>
  <rect x="250.0" y="150.0" width="180.0" height="56.0" rx="10.0" fill="#eff6ff" stroke="#93c5fd" stroke-width="1.8"/>
  <text x="340.0" y="168.0" text-anchor="middle" class="node-type">SURFACE</text>
  <text x="340.0" y="184.0" text-anchor="middle" class="node-title">Console Chat</text>
  <text x="340.0" y="206.0" text-anchor="middle" class="node-sub">inspect / overlay / REPL</text>
  <rect x="470.0" y="150.0" width="170.0" height="56.0" rx="10.0" fill="#f0fdf4" stroke="#86efac" stroke-width="1.8"/>
  <text x="555.0" y="168.0" text-anchor="middle" class="node-type">SURFACE</text>
  <text x="555.0" y="184.0" text-anchor="middle" class="node-title">Shiny / Quarto</text>
  <text x="555.0" y="206.0" text-anchor="middle" class="node-sub">UI / knitr / docs</text>
  <rect x="680.0" y="150.0" width="150.0" height="56.0" rx="10.0" fill="#fff7ed" stroke="#fdba74" stroke-width="1.8"/>
  <text x="755.0" y="168.0" text-anchor="middle" class="node-type">SURFACE</text>
  <text x="755.0" y="184.0" text-anchor="middle" class="node-title">Channel Runtime</text>
  <text x="755.0" y="206.0" text-anchor="middle" class="node-sub">Feishu / chats</text>
  <rect x="130.0" y="304.0" width="290.0" height="80.0" rx="10.0" fill="#ffffff" stroke="#2563eb" stroke-width="2.0" filter="url(#shadowSoft)"/>
  <rect x="136.0" y="310.0" width="278.0" height="68.0" rx="7.0" fill="none" stroke="#2563eb" stroke-width="1.2" opacity="0.65"/>
  <text x="275.0" y="322.0" text-anchor="middle" class="node-type">STATE</text>
  <text x="275.0" y="350.0" text-anchor="middle" class="node-title">ChatSession / SharedSession</text>
  <text x="275.0" y="372.0" text-anchor="middle" class="node-sub">history + env + metadata</text>
  <rect x="476.0" y="304.0" width="310.0" height="80.0" rx="10.0" fill="#ffffff" stroke="#7c3aed" stroke-width="2.0" filter="url(#shadowSoft)"/>
  <rect x="482.0" y="310.0" width="298.0" height="68.0" rx="7.0" fill="none" stroke="#7c3aed" stroke-width="1.2" opacity="0.65"/>
  <text x="631.0" y="322.0" text-anchor="middle" class="node-type">CONTROL</text>
  <text x="631.0" y="350.0" text-anchor="middle" class="node-title">Agent / Flow / Mission</text>
  <text x="631.0" y="372.0" text-anchor="middle" class="node-sub">delegation + orchestration</text>
  <rect x="130.0" y="416.0" width="220.0" height="60.0" rx="10.0" fill="#f8fafc" stroke="#cbd5e1" stroke-width="1.8"/>
  <text x="240.0" y="434.0" text-anchor="middle" class="node-type">CONTEXT</text>
  <text x="240.0" y="452.0" text-anchor="middle" class="node-title">Context Budget</text>
  <text x="240.0" y="474.0" text-anchor="middle" class="node-sub">renderers + history trim</text>
  <ellipse cx="513.0" cy="415.75" rx="41.5" ry="11.75" fill="#ecfdf5" stroke="#10b981" stroke-width="2.2"/>
  <rect x="430.0" y="415.75" width="166.0" height="70.5" fill="#ecfdf5" stroke="#10b981" stroke-width="2.2"/>
  <ellipse cx="513.0" cy="486.25" rx="41.5" ry="11.75" fill="#ecfdf5" stroke="#10b981" stroke-width="2.2"/>
  <ellipse cx="513.0" cy="439.72" rx="41.5" ry="11.75" fill="none" stroke="#10b981" stroke-opacity="0.45" stroke-width="1.2"/>
  <ellipse cx="513.0" cy="460.4" rx="41.5" ry="11.75" fill="none" stroke="#10b981" stroke-opacity="0.25" stroke-width="1.2"/>
  <text x="513.0" y="445.0" text-anchor="middle" class="node-title">Durable Memory</text>
  <text x="513.0" y="469.0" text-anchor="middle" class="node-sub">session store + SQLite</text>
  <rect x="648.0" y="416.0" width="154.0" height="60.0" rx="10.0" fill="#f8fafc" stroke="#cbd5e1" stroke-width="1.8"/>
  <text x="725.0" y="434.0" text-anchor="middle" class="node-type">OPS</text>
  <text x="725.0" y="452.0" text-anchor="middle" class="node-title">Hooks / Telemetry</text>
  <text x="725.0" y="474.0" text-anchor="middle" class="node-sub">traces + review data</text>
  <rect x="76.0" y="548.0" width="216.0" height="72.0" rx="10.0" fill="#ffffff" stroke="#2563eb" stroke-width="2.0" filter="url(#shadowSoft)"/>
  <rect x="82.0" y="554.0" width="204.0" height="60.0" rx="7.0" fill="none" stroke="#2563eb" stroke-width="1.2" opacity="0.65"/>
  <text x="184.0" y="566.0" text-anchor="middle" class="node-type">ENGINE</text>
  <text x="184.0" y="590.0" text-anchor="middle" class="node-title">Core API</text>
  <text x="184.0" y="612.0" text-anchor="middle" class="node-sub">generate / stream / tools</text>
  <rect x="336.0" y="548.0" width="192.0" height="72.0" rx="10.0" fill="#f0fdf4" stroke="#86efac" stroke-width="1.8"/>
  <text x="432.0" y="566.0" text-anchor="middle" class="node-type">TOOLS</text>
  <text x="432.0" y="590.0" text-anchor="middle" class="node-title">Skills + DSL</text>
  <text x="432.0" y="612.0" text-anchor="middle" class="node-sub">SKILL.md -&gt; tools</text>
  <rect x="572.0" y="548.0" width="246.0" height="72.0" rx="10.0" fill="#fff7ed" stroke="#fdba74" stroke-width="1.8"/>
  <text x="695.0" y="566.0" text-anchor="middle" class="node-type">EXEC</text>
  <text x="695.0" y="590.0" text-anchor="middle" class="node-title">Computer / Sandbox / MCP</text>
  <text x="695.0" y="612.0" text-anchor="middle" class="node-sub">R code + CLI + external servers</text>
  <rect x="76.0" y="646.0" width="216.0" height="60.0" rx="10.0" fill="#f0fdf4" stroke="#86efac" stroke-width="1.8"/>
  <text x="184.0" y="664.0" text-anchor="middle" class="node-type">SEMANTIC</text>
  <text x="184.0" y="682.0" text-anchor="middle" class="node-title">Semantic Adapters</text>
  <text x="184.0" y="704.0" text-anchor="middle" class="node-sub">object-aware context</text>
  <rect x="336.0" y="646.0" width="192.0" height="60.0" rx="10.0" fill="#faf5ff" stroke="#c4b5fd" stroke-width="1.8"/>
  <text x="432.0" y="664.0" text-anchor="middle" class="node-type">MEDIA</text>
  <text x="432.0" y="682.0" text-anchor="middle" class="node-title">Multimodal / Images</text>
  <text x="432.0" y="704.0" text-anchor="middle" class="node-sub">content blocks + image APIs</text>
  <rect x="572.0" y="638.0" width="246.0" height="76.0" rx="10.0" fill="#fef2f2" stroke="#fca5a5" stroke-width="1.8"/>
  <text x="695.0" y="656.0" text-anchor="middle" class="node-type">MODELS</text>
  <text x="695.0" y="682.0" text-anchor="middle" class="node-title">Provider Layer</text>
  <text x="695.0" y="704.0" text-anchor="middle" class="node-sub">OpenAI / Anthropic / Gemini / OpenRouter / ...</text>
  <rect x="76.0" y="748.0" width="222.0" height="56.0" rx="10.0" fill="#f8fafc" stroke="#cbd5e1" stroke-width="1.8"/>
  <text x="187.0" y="766.0" text-anchor="middle" class="node-type">CONTRACT</text>
  <text x="187.0" y="782.0" text-anchor="middle" class="node-title">Spec + Schema</text>
  <text x="187.0" y="804.0" text-anchor="middle" class="node-sub">model defaults + contracts</text>
  <rect x="340.0" y="748.0" width="198.0" height="56.0" rx="10.0" fill="#f8fafc" stroke="#cbd5e1" stroke-width="1.8"/>
  <text x="439.0" y="766.0" text-anchor="middle" class="node-type">BASE</text>
  <text x="439.0" y="782.0" text-anchor="middle" class="node-title">Auth / Cache / Utils</text>
  <text x="439.0" y="804.0" text-anchor="middle" class="node-sub">shared plumbing</text>
  <rect x="580.0" y="748.0" width="238.0" height="56.0" rx="10.0" fill="#f8fafc" stroke="#cbd5e1" stroke-width="1.8"/>
  <text x="699.0" y="766.0" text-anchor="middle" class="node-type">PACKAGE</text>
  <text x="699.0" y="782.0" text-anchor="middle" class="node-title">Core Package Boundary</text>
  <text x="699.0" y="804.0" text-anchor="middle" class="node-sub">extensions split out</text>
  <rect x="940.0" y="266.0" width="340.0" height="64.0" rx="10.0" fill="#eff6ff" stroke="#60a5fa" stroke-width="1.8"/>
  <text x="1110.0" y="284.0" text-anchor="middle" class="node-type">P1</text>
  <text x="1110.0" y="304.0" text-anchor="middle" class="node-title">Runtime Convergence</text>
  <text x="1110.0" y="326.0" text-anchor="middle" class="node-sub">console + channel + durable sessions</text>
  <rect x="958.0" y="310.0" width="62" height="16" rx="3" fill="#dcfce7" stroke="#86efac" stroke-width="1"/>
  <text x="989.0" y="321.5" text-anchor="middle" font-size="11" font-weight="500" fill="#15803d">NEXT</text>
  <rect x="940.0" y="354.0" width="340.0" height="64.0" rx="10.0" fill="#eff6ff" stroke="#60a5fa" stroke-width="1.8"/>
  <text x="1110.0" y="372.0" text-anchor="middle" class="node-type">PRODUCT</text>
  <text x="1110.0" y="392.0" text-anchor="middle" class="node-title">Skill-first Assistant</text>
  <text x="1110.0" y="414.0" text-anchor="middle" class="node-sub">durable operators + automation</text>
  <rect x="940.0" y="442.0" width="340.0" height="64.0" rx="10.0" fill="#eff6ff" stroke="#60a5fa" stroke-width="1.8"/>
  <text x="1110.0" y="460.0" text-anchor="middle" class="node-type">HARDEN</text>
  <text x="1110.0" y="480.0" text-anchor="middle" class="node-title">Observability / Review</text>
  <text x="1110.0" y="502.0" text-anchor="middle" class="node-sub">startup, replay, status hardening</text>
  <rect x="940.0" y="578.0" width="340.0" height="64.0" rx="10.0" fill="#faf5ff" stroke="#a78bfa" stroke-width="1.8"/>
  <text x="1110.0" y="596.0" text-anchor="middle" class="node-type">P2</text>
  <text x="1110.0" y="616.0" text-anchor="middle" class="node-title">Semantic Families</text>
  <text x="1110.0" y="638.0" text-anchor="middle" class="node-sub">expand in aisdk.bioc</text>
  <rect x="940.0" y="666.0" width="340.0" height="64.0" rx="10.0" fill="#faf5ff" stroke="#a78bfa" stroke-width="1.8"/>
  <text x="1110.0" y="684.0" text-anchor="middle" class="node-type">API</text>
  <text x="1110.0" y="704.0" text-anchor="middle" class="node-title">Multimodal Ergonomics</text>
  <text x="1110.0" y="726.0" text-anchor="middle" class="node-sub">vision input + image output</text>
  <rect x="940.0" y="754.0" width="340.0" height="64.0" rx="10.0" fill="#faf5ff" stroke="#a78bfa" stroke-width="1.8"/>
  <text x="1110.0" y="772.0" text-anchor="middle" class="node-type">ECOSYSTEM</text>
  <text x="1110.0" y="792.0" text-anchor="middle" class="node-title">Extension Contracts</text>
  <text x="1110.0" y="814.0" text-anchor="middle" class="node-sub">workflow hints + bench surface</text>
  <rect x="141.0" y="228.4" width="42" height="20" rx="6" fill="#ffffff" opacity="0.94"/>
  <text x="162.0" y="242.4" text-anchor="middle" class="arrow-label">call</text>
  <rect x="286.5" y="228.4" width="42" height="20" rx="6" fill="#ffffff" opacity="0.94"/>
  <text x="307.5" y="242.4" text-anchor="middle" class="arrow-label">chat</text>
  <rect x="512.5" y="230.0" width="49" height="20" rx="6" fill="#ffffff" opacity="0.94"/>
  <text x="537.0" y="244.0" text-anchor="middle" class="arrow-label">embed</text>
  <rect x="536.0" y="272.0" width="49" height="20" rx="6" fill="#ffffff" opacity="0.94"/>
  <text x="560.5" y="286.0" text-anchor="middle" class="arrow-label">route</text>
  <rect x="399.0" y="330.0" width="98" height="20" rx="6" fill="#ffffff" opacity="0.94"/>
  <text x="448.0" y="344.0" text-anchor="middle" class="arrow-label">shared state</text>
  <rect x="229.5" y="390.4" width="56" height="20" rx="6" fill="#ffffff" opacity="0.94"/>
  <text x="257.5" y="404.4" text-anchor="middle" class="arrow-label">budget</text>
  <rect x="362.5" y="398.0" width="63" height="20" rx="6" fill="#ffffff" opacity="0.94"/>
  <text x="394.0" y="412.0" text-anchor="middle" class="arrow-label">persist</text>
  <rect x="636.0" y="376.0" width="49" height="20" rx="6" fill="#ffffff" opacity="0.94"/>
  <text x="660.5" y="390.0" text-anchor="middle" class="arrow-label">trace</text>
  <rect x="389.5" y="446.0" width="36" height="20" rx="6" fill="#ffffff" opacity="0.94"/>
  <text x="407.5" y="460.0" text-anchor="middle" class="arrow-label">run</text>
  <rect x="58.5" y="496.0" width="63" height="20" rx="6" fill="#ffffff" opacity="0.94"/>
  <text x="90.0" y="510.0" text-anchor="middle" class="arrow-label">objects</text>
  <rect x="892.0" y="268.0" width="36" height="20" rx="6" fill="#ffffff" opacity="0.94"/>
  <text x="910.0" y="282.0" text-anchor="middle" class="arrow-label">P1</text>
  <rect x="819.5" y="416.0" width="63" height="20" rx="6" fill="#ffffff" opacity="0.94"/>
  <text x="851.0" y="430.0" text-anchor="middle" class="arrow-label">tighten</text>
  <rect x="32.0" y="832.0" width="310" height="112" rx="10" fill="#ffffff" opacity="0.88"/>
  <line x1="42.0" y1="846.0" x2="72.0" y2="846.0" stroke="#2563eb" stroke-width="2.4" marker-end="url(#arrowC)"/>
  <text x="82.0" y="850.0" class="legend">primary request / runtime path</text>
  <line x1="42.0" y1="868.0" x2="72.0" y2="868.0" stroke="#7c3aed" stroke-width="2.4" marker-end="url(#arrowA)"/>
  <text x="82.0" y="872.0" class="legend">orchestration / next-step priority</text>
  <line x1="42.0" y1="890.0" x2="72.0" y2="890.0" stroke="#10b981" stroke-width="2.4" marker-end="url(#arrowB)"/>
  <text x="82.0" y="894.0" class="legend">durable writeback</text>
  <line x1="42.0" y1="912.0" x2="72.0" y2="912.0" stroke="#7c3aed" stroke-width="2.4" marker-end="url(#arrowA)"/>
  <text x="82.0" y="916.0" class="legend">second-wave expansion dependency</text>
  <text x="828.0" y="846.0" class="footnote">Judgment: route A first, route B after the core boundary stays stable.</text>
</svg>